<svg width="1584" height="504" viewBox="0 0 1584 504" fill="none" xmlns="http://www.w3.org/2000/svg">
<g clip-path="url(#clip0_1464_62)">
<rect width="1584" height="504" rx="24" fill="#2A2A2A" fill-opacity="0.8"/>
<g clip-path="url(#clip1_1464_62)">
<g filter="url(#filter0_f_1464_62)">
<path d="M1298.71 408.33C1358.91 408.33 1407.71 353.261 1407.71 285.33C1407.71 217.399 1358.91 162.33 1298.71 162.33C1238.51 162.33 1189.71 217.399 1189.71 285.33C1189.71 353.261 1238.51 408.33 1298.71 408.33Z" fill="#9116FE"/>
<path d="M1204.41 240.536C1264.61 240.536 1313.41 185.467 1313.41 117.536C1313.41 49.6046 1264.61 -5.46436 1204.41 -5.46436C1144.21 -5.46436 1095.41 49.6046 1095.41 117.536C1095.41 185.467 1144.21 240.536 1204.41 240.536Z" fill="#6310E0"/>
<path d="M1066.52 472.603C1126.72 472.603 1175.52 417.534 1175.52 349.603C1175.52 281.672 1126.72 226.603 1066.52 226.603C1006.33 226.603 957.524 281.672 957.524 349.603C957.524 417.534 1006.33 472.603 1066.52 472.603Z" fill="#A916FE"/>
</g>
</g>
<path d="M1560.62 450H1507.09C1506.27 450 1505.48 450.325 1504.9 450.905C1504.33 451.484 1504 452.269 1504 453.088V481.912C1504 482.731 1504.33 483.516 1504.9 484.095C1505.48 484.675 1506.27 485 1507.09 485H1560.62C1561.44 485 1562.22 484.675 1562.8 484.095C1563.38 483.516 1563.71 482.731 1563.71 481.912V453.088C1563.71 452.269 1563.38 451.484 1562.8 450.905C1562.22 450.325 1561.44 450 1560.62 450ZM1561.65 481.912C1561.65 482.185 1561.54 482.447 1561.35 482.64C1561.15 482.833 1560.89 482.941 1560.62 482.941H1507.09C1506.82 482.941 1506.55 482.833 1506.36 482.64C1506.17 482.447 1506.06 482.185 1506.06 481.912V453.088C1506.06 452.815 1506.17 452.553 1506.36 452.36C1506.55 452.167 1506.82 452.059 1507.09 452.059H1560.62C1560.89 452.059 1561.15 452.167 1561.35 452.36C1561.54 452.553 1561.65 452.815 1561.65 453.088V481.912ZM1532.82 460.294V466.471H1535.91C1536.18 466.471 1536.45 466.579 1536.64 466.772C1536.83 466.965 1536.94 467.227 1536.94 467.5C1536.94 467.773 1536.83 468.035 1536.64 468.228C1536.45 468.421 1536.18 468.529 1535.91 468.529H1532.82V474.706H1537.97C1538.24 474.706 1538.51 474.814 1538.7 475.007C1538.89 475.2 1539 475.462 1539 475.735C1539 476.008 1538.89 476.27 1538.7 476.463C1538.51 476.656 1538.24 476.765 1537.97 476.765H1531.79C1531.52 476.765 1531.26 476.656 1531.07 476.463C1530.87 476.27 1530.76 476.008 1530.76 475.735V459.265C1530.76 458.992 1530.87 458.73 1531.07 458.537C1531.26 458.344 1531.52 458.235 1531.79 458.235H1537.97C1538.24 458.235 1538.51 458.344 1538.7 458.537C1538.89 458.73 1539 458.992 1539 459.265C1539 459.538 1538.89 459.8 1538.7 459.993C1538.51 460.186 1538.24 460.294 1537.97 460.294H1532.82ZM1555.43 459.543L1550.8 476.013C1550.74 476.229 1550.61 476.419 1550.43 476.555C1550.25 476.69 1550.03 476.763 1549.81 476.763C1549.58 476.763 1549.37 476.69 1549.19 476.555C1549.01 476.419 1548.88 476.229 1548.82 476.013L1544.19 459.543C1544.15 459.411 1544.13 459.273 1544.14 459.136C1544.16 459 1544.2 458.867 1544.27 458.746C1544.33 458.625 1544.42 458.519 1544.53 458.434C1544.64 458.348 1544.76 458.285 1544.89 458.247C1545.02 458.21 1545.16 458.2 1545.3 458.217C1545.43 458.235 1545.57 458.279 1545.69 458.348C1545.8 458.417 1545.91 458.509 1545.99 458.619C1546.07 458.728 1546.13 458.853 1546.17 458.987L1549.81 471.934L1553.45 458.987C1553.53 458.73 1553.71 458.515 1553.94 458.387C1554.18 458.258 1554.45 458.227 1554.71 458.3C1554.97 458.372 1555.19 458.543 1555.32 458.775C1555.46 459.007 1555.5 459.282 1555.43 459.543ZM1517.38 458.235H1515.32C1515.05 458.235 1514.79 458.344 1514.6 458.537C1514.4 458.73 1514.29 458.992 1514.29 459.265V475.735C1514.29 476.008 1514.4 476.27 1514.6 476.463C1514.79 476.656 1515.05 476.765 1515.32 476.765H1517.38C1519.29 476.765 1521.13 476.006 1522.48 474.654C1523.83 473.303 1524.59 471.47 1524.59 469.559V465.441C1524.59 463.53 1523.83 461.697 1522.48 460.346C1521.13 458.994 1519.29 458.235 1517.38 458.235ZM1522.53 469.559C1522.53 470.924 1521.99 472.233 1521.02 473.198C1520.06 474.164 1518.75 474.706 1517.38 474.706H1516.35V460.294H1517.38C1518.75 460.294 1520.06 460.836 1521.02 461.802C1521.99 462.767 1522.53 464.076 1522.53 465.441V469.559Z" fill="#FCFCFC"/>
<path d="M417.816 211.048H431.928V241.288L458.616 211.048H475.8L450.072 239.656L477.624 277H460.44L440.184 249.736L431.928 258.568V277H417.816V211.048ZM499.392 236.68C501.056 233.416 503.36 230.856 506.304 229C509.312 227.144 512.672 226.216 516.384 226.216V238.024C511.2 238.024 507.072 239.4 504 242.152C500.928 244.904 499.392 248.616 499.392 253.288V277H485.376V227.368H499.392V236.68ZM523.907 227.368H537.923V277H523.907V227.368ZM531.011 220.552C528.835 220.552 527.011 219.816 525.539 218.344C524.067 216.808 523.331 214.984 523.331 212.872C523.331 210.888 524.067 209.16 525.539 207.688C527.075 206.152 528.899 205.384 531.011 205.384C533.059 205.384 534.819 206.152 536.291 207.688C537.827 209.16 538.595 210.888 538.595 212.872C538.595 214.984 537.827 216.808 536.291 218.344C534.819 219.816 533.059 220.552 531.011 220.552ZM567.384 278.152C563.416 278.152 559.448 277.512 555.48 276.232C551.512 274.888 548.024 273.032 545.016 270.664L550.68 261.832C553.304 263.688 556.12 265.16 559.128 266.248C562.2 267.336 565.048 267.88 567.672 267.88C569.976 267.88 571.736 267.496 572.952 266.728C574.232 265.896 574.872 264.744 574.872 263.272C574.872 261.8 574.072 260.648 572.472 259.816C570.936 258.984 568.6 258.184 565.464 257.416C561.432 256.456 558.136 255.432 555.576 254.344C553.08 253.256 551.064 251.752 549.528 249.832C548.056 247.912 547.32 245.416 547.32 242.344C547.32 239.208 548.12 236.424 549.72 233.992C551.32 231.56 553.592 229.672 556.536 228.328C559.48 226.92 562.872 226.216 566.712 226.216C570.168 226.216 573.56 226.76 576.888 227.848C580.28 228.936 583.416 230.44 586.296 232.36L581.112 241.384C578.744 239.848 576.28 238.632 573.72 237.736C571.224 236.776 568.888 236.296 566.712 236.296C564.792 236.296 563.192 236.744 561.912 237.64C560.696 238.472 560.088 239.56 560.088 240.904C560.088 242.12 560.696 243.048 561.912 243.688C563.192 244.328 565.72 245.16 569.496 246.184C573.208 247.144 576.312 248.168 578.808 249.256C581.304 250.28 583.384 251.848 585.048 253.96C586.776 256.008 587.64 258.728 587.64 262.12C587.64 266.984 585.784 270.888 582.072 273.832C578.424 276.712 573.528 278.152 567.384 278.152ZM625.004 226.216C628.588 226.216 631.756 227.048 634.508 228.712C637.324 230.312 639.5 232.584 641.036 235.528C642.636 238.408 643.436 241.704 643.436 245.416V277H629.996V248.392C629.996 245.32 629.1 242.824 627.308 240.904C625.58 238.984 623.308 238.024 620.492 238.024C617.548 238.024 615.084 238.952 613.1 240.808C611.116 242.664 610.124 244.936 610.124 247.624V277H596.108V209.896H610.124V233.416C611.66 231.176 613.74 229.416 616.364 228.136C618.988 226.856 621.868 226.216 625.004 226.216ZM682.181 226.216C685.701 226.216 688.837 227.048 691.589 228.712C694.405 230.312 696.581 232.584 698.117 235.528C699.717 238.408 700.517 241.704 700.517 245.416V277H687.077V248.392C687.077 245.32 686.213 242.824 684.485 240.904C682.757 238.984 680.485 238.024 677.669 238.024C674.725 238.024 672.229 238.952 670.181 240.808C668.197 242.664 667.205 244.936 667.205 247.624V277H653.189V227.368H667.205V233.512C668.741 231.272 670.821 229.512 673.445 228.232C676.069 226.888 678.981 226.216 682.181 226.216ZM732.072 226.216C736.36 226.216 740.168 227.08 743.496 228.808C746.824 230.536 749.384 233 751.176 236.2C753.032 239.336 753.96 243.048 753.96 247.336V277H740.424V272.008C738.696 273.928 736.488 275.432 733.8 276.52C731.176 277.608 728.488 278.152 725.736 278.152C722.216 278.152 719.048 277.512 716.232 276.232C713.416 274.888 711.176 273.032 709.512 270.664C707.912 268.232 707.112 265.448 707.112 262.312C707.112 259.112 708.008 256.264 709.8 253.768C711.656 251.272 714.152 249.32 717.288 247.912C720.424 246.504 723.88 245.8 727.656 245.8C731.944 245.8 736.2 246.664 740.424 248.392V247.336C740.424 244.456 739.464 242.088 737.544 240.232C735.624 238.376 732.744 237.448 728.904 237.448C724.936 237.448 720.648 238.632 716.04 241L711.336 231.688C718.504 228.04 725.416 226.216 732.072 226.216ZM728.904 268.456C731.72 268.456 734.216 267.848 736.392 266.632C738.568 265.352 739.912 263.592 740.424 261.352V256.84C737.16 255.56 733.576 254.92 729.672 254.92C727.112 254.92 724.936 255.592 723.144 256.936C721.352 258.28 720.456 259.944 720.456 261.928C720.456 263.912 721.256 265.512 722.856 266.728C724.456 267.88 726.472 268.456 728.904 268.456ZM791.222 211.048H805.334L825.782 248.296L846.134 211.048H860.342V277H846.134V235.912L825.782 273.16L805.334 235.912V277H791.222V211.048ZM896.66 278.152C891.796 278.152 887.284 277 883.124 274.696C878.964 272.328 875.668 269.16 873.236 265.192C870.804 261.16 869.588 256.808 869.588 252.136C869.588 247.464 870.804 243.144 873.236 239.176C875.668 235.208 878.964 232.072 883.124 229.768C887.284 227.4 891.796 226.216 896.66 226.216C901.524 226.216 906.036 227.4 910.196 229.768C914.356 232.072 917.652 235.208 920.083 239.176C922.516 243.144 923.732 247.464 923.732 252.136C923.732 256.808 922.516 261.16 920.083 265.192C917.652 269.16 914.356 272.328 910.196 274.696C906.036 277 901.524 278.152 896.66 278.152ZM896.66 266.344C899.092 266.344 901.364 265.704 903.476 264.424C905.588 263.144 907.252 261.416 908.468 259.24C909.684 257.064 910.292 254.696 910.292 252.136C910.292 249.576 909.684 247.24 908.468 245.128C907.252 242.952 905.588 241.224 903.476 239.944C901.364 238.664 899.092 238.024 896.66 238.024C894.228 238.024 891.956 238.664 889.844 239.944C887.732 241.224 886.068 242.952 884.852 245.128C883.636 247.24 883.028 249.576 883.028 252.136C883.028 254.696 883.636 257.064 884.852 259.24C886.068 261.416 887.732 263.144 889.844 264.424C891.956 265.704 894.228 266.344 896.66 266.344ZM955.628 278.152C950.764 278.152 946.252 277 942.092 274.696C937.932 272.328 934.636 269.16 932.204 265.192C929.772 261.16 928.556 256.808 928.556 252.136C928.556 247.464 929.772 243.144 932.204 239.176C934.636 235.208 937.932 232.072 942.092 229.768C946.252 227.4 950.764 226.216 955.628 226.216C960.492 226.216 965.004 227.4 969.164 229.768C973.324 232.072 976.62 235.208 979.052 239.176C981.484 243.144 982.7 247.464 982.7 252.136C982.7 256.808 981.484 261.16 979.052 265.192C976.62 269.16 973.324 272.328 969.164 274.696C965.004 277 960.492 278.152 955.628 278.152ZM955.628 266.344C958.06 266.344 960.332 265.704 962.444 264.424C964.556 263.144 966.22 261.416 967.436 259.24C968.652 257.064 969.26 254.696 969.26 252.136C969.26 249.576 968.652 247.24 967.436 245.128C966.22 242.952 964.556 241.224 962.444 239.944C960.332 238.664 958.06 238.024 955.628 238.024C953.196 238.024 950.924 238.664 948.812 239.944C946.7 241.224 945.036 242.952 943.82 245.128C942.604 247.24 941.996 249.576 941.996 252.136C941.996 254.696 942.604 257.064 943.82 259.24C945.036 261.416 946.7 263.144 948.812 264.424C950.924 265.704 953.196 266.344 955.628 266.344ZM1004.52 236.68C1006.18 233.416 1008.49 230.856 1011.43 229C1014.44 227.144 1017.8 226.216 1021.51 226.216V238.024C1016.33 238.024 1012.2 239.4 1009.12 242.152C1006.05 244.904 1004.52 248.616 1004.52 253.288V277H990.501V227.368H1004.52V236.68ZM1059.08 273.832C1057.61 275.112 1055.85 276.168 1053.8 277C1051.75 277.768 1049.74 278.152 1047.75 278.152C1043.34 278.152 1039.72 276.744 1036.9 273.928C1034.15 271.112 1032.78 267.464 1032.78 262.984V238.696H1025.96V227.368H1032.78V213.736H1046.31V227.368H1057.06V238.696H1046.31V260.776C1046.31 262.376 1046.76 263.72 1047.66 264.808C1048.55 265.832 1049.67 266.344 1051.02 266.344C1051.98 266.344 1052.87 266.216 1053.7 265.96C1054.54 265.64 1055.21 265.224 1055.72 264.712L1059.08 273.832ZM1096.38 226.216C1099.96 226.216 1103.13 227.048 1105.88 228.712C1108.7 230.312 1110.88 232.584 1112.41 235.528C1114.01 238.408 1114.81 241.704 1114.81 245.416V277H1101.37V248.392C1101.37 245.32 1100.48 242.824 1098.68 240.904C1096.96 238.984 1094.68 238.024 1091.87 238.024C1088.92 238.024 1086.46 238.952 1084.48 240.808C1082.49 242.664 1081.5 244.936 1081.5 247.624V277H1067.48V209.896H1081.5V233.416C1083.04 231.176 1085.12 229.416 1087.74 228.136C1090.36 226.856 1093.24 226.216 1096.38 226.216ZM1133.85 294.28C1131.8 294.28 1129.63 293.992 1127.32 293.416C1125.08 292.84 1123.13 292.104 1121.47 291.208L1124.44 281.608C1125.59 282.248 1126.75 282.76 1127.9 283.144C1129.11 283.592 1130.14 283.816 1130.97 283.816C1132.31 283.816 1133.53 283.528 1134.62 282.952C1135.71 282.376 1136.57 281.512 1137.21 280.36L1138.55 277.48L1117.91 227.368H1132.41L1145.47 262.216L1157.75 227.368H1172.06L1151.8 279.496C1149.88 284.36 1147.39 288.04 1144.31 290.536C1141.31 293.032 1137.82 294.28 1133.85 294.28Z" fill="white"/>
<path d="M615.859 305.102V307.504C615.141 307.043 614.418 306.695 613.691 306.461C612.973 306.227 612.246 306.109 611.512 306.109C610.395 306.109 609.512 306.371 608.863 306.895C608.215 307.41 607.891 308.109 607.891 308.992C607.891 309.766 608.102 310.355 608.523 310.762C608.953 311.168 609.75 311.508 610.914 311.781L612.156 312.062C613.797 312.445 614.992 313.047 615.742 313.867C616.492 314.688 616.867 315.805 616.867 317.219C616.867 318.883 616.352 320.152 615.32 321.027C614.289 321.902 612.789 322.34 610.82 322.34C610 322.34 609.176 322.25 608.348 322.07C607.52 321.898 606.688 321.637 605.852 321.285V318.766C606.75 319.336 607.598 319.754 608.395 320.02C609.199 320.285 610.008 320.418 610.82 320.418C612.016 320.418 612.945 320.152 613.609 319.621C614.273 319.082 614.605 318.332 614.605 317.371C614.605 316.496 614.375 315.828 613.914 315.367C613.461 314.906 612.668 314.551 611.535 314.301L610.27 314.008C608.645 313.641 607.465 313.086 606.73 312.344C605.996 311.602 605.629 310.605 605.629 309.355C605.629 307.793 606.152 306.543 607.199 305.605C608.254 304.66 609.652 304.188 611.395 304.188C612.066 304.188 612.773 304.266 613.516 304.422C614.258 304.57 615.039 304.797 615.859 305.102ZM631.586 314.359V315.414H622.246V315.484C622.184 317.273 622.523 318.559 623.266 319.34C624.016 320.121 625.07 320.512 626.43 320.512C627.117 320.512 627.836 320.402 628.586 320.184C629.336 319.965 630.137 319.633 630.988 319.188V321.332C630.168 321.668 629.375 321.918 628.609 322.082C627.852 322.254 627.117 322.34 626.406 322.34C624.367 322.34 622.773 321.73 621.625 320.512C620.477 319.285 619.902 317.598 619.902 315.449C619.902 313.355 620.465 311.684 621.59 310.434C622.715 309.184 624.215 308.559 626.09 308.559C627.762 308.559 629.078 309.125 630.039 310.258C631.008 311.391 631.523 312.758 631.586 314.359ZM629.43 313.727C629.336 312.82 629.004 312.039 628.434 311.383C627.871 310.719 627.059 310.387 625.996 310.387C624.957 310.387 624.102 310.73 623.43 311.418C622.758 312.105 622.391 312.879 622.328 313.738L629.43 313.727ZM641.148 315.402H640.434C639.176 315.402 638.227 315.625 637.586 316.07C636.953 316.508 636.637 317.164 636.637 318.039C636.637 318.828 636.875 319.441 637.352 319.879C637.828 320.316 638.488 320.535 639.332 320.535C640.52 320.535 641.453 320.125 642.133 319.305C642.812 318.477 643.156 317.336 643.164 315.883V315.402H641.148ZM645.332 314.512V322H643.164V320.055C642.703 320.836 642.121 321.414 641.418 321.789C640.723 322.156 639.875 322.34 638.875 322.34C637.539 322.34 636.473 321.965 635.676 321.215C634.879 320.457 634.48 319.445 634.48 318.18C634.48 316.719 634.969 315.609 635.945 314.852C636.93 314.094 638.371 313.715 640.27 313.715H643.164V313.375C643.156 312.328 642.891 311.57 642.367 311.102C641.844 310.625 641.008 310.387 639.859 310.387C639.125 310.387 638.383 310.492 637.633 310.703C636.883 310.914 636.152 311.223 635.441 311.629V309.473C636.238 309.168 637 308.941 637.727 308.793C638.461 308.637 639.172 308.559 639.859 308.559C640.945 308.559 641.871 308.719 642.637 309.039C643.41 309.359 644.035 309.84 644.512 310.48C644.809 310.871 645.02 311.355 645.145 311.934C645.27 312.504 645.332 313.363 645.332 314.512ZM658.785 309.332V311.441C658.168 311.082 657.547 310.812 656.922 310.633C656.297 310.453 655.66 310.363 655.012 310.363C654.035 310.363 653.305 310.523 652.82 310.844C652.344 311.156 652.105 311.637 652.105 312.285C652.105 312.871 652.285 313.309 652.645 313.598C653.004 313.887 653.898 314.168 655.328 314.441L656.195 314.605C657.266 314.809 658.074 315.215 658.621 315.824C659.176 316.434 659.453 317.227 659.453 318.203C659.453 319.5 658.992 320.516 658.07 321.25C657.148 321.977 655.867 322.34 654.227 322.34C653.578 322.34 652.898 322.27 652.188 322.129C651.477 321.996 650.707 321.793 649.879 321.52V319.293C650.684 319.707 651.453 320.02 652.188 320.23C652.922 320.434 653.617 320.535 654.273 320.535C655.227 320.535 655.965 320.344 656.488 319.961C657.012 319.57 657.273 319.027 657.273 318.332C657.273 317.332 656.316 316.641 654.402 316.258L654.309 316.234L653.5 316.07C652.258 315.828 651.352 315.422 650.781 314.852C650.211 314.273 649.926 313.488 649.926 312.496C649.926 311.238 650.352 310.27 651.203 309.59C652.055 308.902 653.27 308.559 654.848 308.559C655.551 308.559 656.227 308.625 656.875 308.758C657.523 308.883 658.16 309.074 658.785 309.332ZM669.062 310.387C667.969 310.387 667.141 310.812 666.578 311.664C666.016 312.516 665.734 313.777 665.734 315.449C665.734 317.113 666.016 318.375 666.578 319.234C667.141 320.086 667.969 320.512 669.062 320.512C670.164 320.512 670.996 320.086 671.559 319.234C672.121 318.375 672.402 317.113 672.402 315.449C672.402 313.777 672.121 312.516 671.559 311.664C670.996 310.812 670.164 310.387 669.062 310.387ZM669.062 308.559C670.883 308.559 672.273 309.148 673.234 310.328C674.203 311.508 674.688 313.215 674.688 315.449C674.688 317.691 674.207 319.402 673.246 320.582C672.285 321.754 670.891 322.34 669.062 322.34C667.242 322.34 665.852 321.754 664.891 320.582C663.93 319.402 663.449 317.691 663.449 315.449C663.449 313.215 663.93 311.508 664.891 310.328C665.852 309.148 667.242 308.559 669.062 308.559ZM688.621 313.867V322H686.453V313.867C686.453 312.688 686.246 311.82 685.832 311.266C685.418 310.711 684.77 310.434 683.887 310.434C682.879 310.434 682.102 310.793 681.555 311.512C681.016 312.223 680.746 313.246 680.746 314.582V322H678.59V308.875H680.746V310.844C681.129 310.094 681.648 309.527 682.305 309.145C682.961 308.754 683.738 308.559 684.637 308.559C685.973 308.559 686.969 309 687.625 309.883C688.289 310.758 688.621 312.086 688.621 313.867ZM703.891 314.359V315.414H694.551V315.484C694.488 317.273 694.828 318.559 695.57 319.34C696.32 320.121 697.375 320.512 698.734 320.512C699.422 320.512 700.141 320.402 700.891 320.184C701.641 319.965 702.441 319.633 703.293 319.188V321.332C702.473 321.668 701.68 321.918 700.914 322.082C700.156 322.254 699.422 322.34 698.711 322.34C696.672 322.34 695.078 321.73 693.93 320.512C692.781 319.285 692.207 317.598 692.207 315.449C692.207 313.355 692.77 311.684 693.895 310.434C695.02 309.184 696.52 308.559 698.395 308.559C700.066 308.559 701.383 309.125 702.344 310.258C703.312 311.391 703.828 312.758 703.891 314.359ZM701.734 313.727C701.641 312.82 701.309 312.039 700.738 311.383C700.176 310.719 699.363 310.387 698.301 310.387C697.262 310.387 696.406 310.73 695.734 311.418C695.062 312.105 694.695 312.879 694.633 313.738L701.734 313.727ZM715.281 310.551V303.766H717.438V322H715.281V320.348C714.922 320.996 714.441 321.492 713.84 321.836C713.246 322.172 712.559 322.34 711.777 322.34C710.191 322.34 708.941 321.727 708.027 320.5C707.121 319.266 706.668 317.566 706.668 315.402C706.668 313.27 707.125 311.598 708.039 310.387C708.953 309.168 710.199 308.559 711.777 308.559C712.566 308.559 713.262 308.73 713.863 309.074C714.465 309.41 714.938 309.902 715.281 310.551ZM708.941 315.449C708.941 317.121 709.207 318.383 709.738 319.234C710.27 320.086 711.055 320.512 712.094 320.512C713.133 320.512 713.922 320.082 714.461 319.223C715.008 318.363 715.281 317.105 715.281 315.449C715.281 313.785 715.008 312.527 714.461 311.676C713.922 310.816 713.133 310.387 712.094 310.387C711.055 310.387 710.27 310.812 709.738 311.664C709.207 312.516 708.941 313.777 708.941 315.449ZM746.008 305.102V307.504C745.289 307.043 744.566 306.695 743.84 306.461C743.121 306.227 742.395 306.109 741.66 306.109C740.543 306.109 739.66 306.371 739.012 306.895C738.363 307.41 738.039 308.109 738.039 308.992C738.039 309.766 738.25 310.355 738.672 310.762C739.102 311.168 739.898 311.508 741.062 311.781L742.305 312.062C743.945 312.445 745.141 313.047 745.891 313.867C746.641 314.688 747.016 315.805 747.016 317.219C747.016 318.883 746.5 320.152 745.469 321.027C744.438 321.902 742.938 322.34 740.969 322.34C740.148 322.34 739.324 322.25 738.496 322.07C737.668 321.898 736.836 321.637 736 321.285V318.766C736.898 319.336 737.746 319.754 738.543 320.02C739.348 320.285 740.156 320.418 740.969 320.418C742.164 320.418 743.094 320.152 743.758 319.621C744.422 319.082 744.754 318.332 744.754 317.371C744.754 316.496 744.523 315.828 744.062 315.367C743.609 314.906 742.816 314.551 741.684 314.301L740.418 314.008C738.793 313.641 737.613 313.086 736.879 312.344C736.145 311.602 735.777 310.605 735.777 309.355C735.777 307.793 736.301 306.543 737.348 305.605C738.402 304.66 739.801 304.188 741.543 304.188C742.215 304.188 742.922 304.266 743.664 304.422C744.406 304.57 745.188 304.797 746.008 305.102ZM755.828 310.387C754.734 310.387 753.906 310.812 753.344 311.664C752.781 312.516 752.5 313.777 752.5 315.449C752.5 317.113 752.781 318.375 753.344 319.234C753.906 320.086 754.734 320.512 755.828 320.512C756.93 320.512 757.762 320.086 758.324 319.234C758.887 318.375 759.168 317.113 759.168 315.449C759.168 313.777 758.887 312.516 758.324 311.664C757.762 310.812 756.93 310.387 755.828 310.387ZM755.828 308.559C757.648 308.559 759.039 309.148 760 310.328C760.969 311.508 761.453 313.215 761.453 315.449C761.453 317.691 760.973 319.402 760.012 320.582C759.051 321.754 757.656 322.34 755.828 322.34C754.008 322.34 752.617 321.754 751.656 320.582C750.695 319.402 750.215 317.691 750.215 315.449C750.215 313.215 750.695 311.508 751.656 310.328C752.617 309.148 754.008 308.559 755.828 308.559ZM775.527 303.766V305.559H773.078C772.305 305.559 771.766 305.719 771.461 306.039C771.164 306.352 771.016 306.91 771.016 307.715V308.875H775.527V310.551H771.016V322H768.859V310.551H765.355V308.875H768.859V307.961C768.859 306.523 769.188 305.465 769.844 304.785C770.508 304.105 771.539 303.766 772.938 303.766H775.527ZM784.727 305.148V308.875H789.625V310.551H784.727V317.676C784.727 318.645 784.91 319.32 785.277 319.703C785.645 320.086 786.285 320.277 787.199 320.277H789.625V322H786.988C785.371 322 784.23 321.676 783.566 321.027C782.902 320.379 782.57 319.262 782.57 317.676V310.551H779.066V308.875H782.57V305.148H784.727ZM791.992 308.875H794.125L796.41 319.48L798.285 312.707H800.125L802.023 319.48L804.309 308.875H806.441L803.371 322H801.309L799.211 314.805L797.125 322H795.062L791.992 308.875ZM814.68 315.402H813.965C812.707 315.402 811.758 315.625 811.117 316.07C810.484 316.508 810.168 317.164 810.168 318.039C810.168 318.828 810.406 319.441 810.883 319.879C811.359 320.316 812.02 320.535 812.863 320.535C814.051 320.535 814.984 320.125 815.664 319.305C816.344 318.477 816.688 317.336 816.695 315.883V315.402H814.68ZM818.863 314.512V322H816.695V320.055C816.234 320.836 815.652 321.414 814.949 321.789C814.254 322.156 813.406 322.34 812.406 322.34C811.07 322.34 810.004 321.965 809.207 321.215C808.41 320.457 808.012 319.445 808.012 318.18C808.012 316.719 808.5 315.609 809.477 314.852C810.461 314.094 811.902 313.715 813.801 313.715H816.695V313.375C816.688 312.328 816.422 311.57 815.898 311.102C815.375 310.625 814.539 310.387 813.391 310.387C812.656 310.387 811.914 310.492 811.164 310.703C810.414 310.914 809.684 311.223 808.973 311.629V309.473C809.77 309.168 810.531 308.941 811.258 308.793C811.992 308.637 812.703 308.559 813.391 308.559C814.477 308.559 815.402 308.719 816.168 309.039C816.941 309.359 817.566 309.84 818.043 310.48C818.34 310.871 818.551 311.355 818.676 311.934C818.801 312.504 818.863 313.363 818.863 314.512ZM834.449 311.582C833.988 311.223 833.52 310.961 833.043 310.797C832.566 310.633 832.043 310.551 831.473 310.551C830.129 310.551 829.102 310.973 828.391 311.816C827.68 312.66 827.324 313.879 827.324 315.473V322H825.156V308.875H827.324V311.441C827.684 310.512 828.234 309.801 828.977 309.309C829.727 308.809 830.613 308.559 831.637 308.559C832.168 308.559 832.664 308.625 833.125 308.758C833.586 308.891 834.027 309.098 834.449 309.379V311.582ZM848.5 314.359V315.414H839.16V315.484C839.098 317.273 839.438 318.559 840.18 319.34C840.93 320.121 841.984 320.512 843.344 320.512C844.031 320.512 844.75 320.402 845.5 320.184C846.25 319.965 847.051 319.633 847.902 319.188V321.332C847.082 321.668 846.289 321.918 845.523 322.082C844.766 322.254 844.031 322.34 843.32 322.34C841.281 322.34 839.688 321.73 838.539 320.512C837.391 319.285 836.816 317.598 836.816 315.449C836.816 313.355 837.379 311.684 838.504 310.434C839.629 309.184 841.129 308.559 843.004 308.559C844.676 308.559 845.992 309.125 846.953 310.258C847.922 311.391 848.438 312.758 848.5 314.359ZM846.344 313.727C846.25 312.82 845.918 312.039 845.348 311.383C844.785 310.719 843.973 310.387 842.91 310.387C841.871 310.387 841.016 310.73 840.344 311.418C839.672 312.105 839.305 312.879 839.242 313.738L846.344 313.727ZM866.605 304.504H876.988V306.496H868.973V311.207H876.637V313.199H868.973V320.008H877.211V322H866.605V304.504ZM891.074 313.867V322H888.906V313.867C888.906 312.688 888.699 311.82 888.285 311.266C887.871 310.711 887.223 310.434 886.34 310.434C885.332 310.434 884.555 310.793 884.008 311.512C883.469 312.223 883.199 313.246 883.199 314.582V322H881.043V308.875H883.199V310.844C883.582 310.094 884.102 309.527 884.758 309.145C885.414 308.754 886.191 308.559 887.09 308.559C888.426 308.559 889.422 309 890.078 309.883C890.742 310.758 891.074 312.086 891.074 313.867ZM903.273 315.332C903.273 313.715 903.008 312.488 902.477 311.652C901.953 310.809 901.188 310.387 900.18 310.387C899.125 310.387 898.32 310.809 897.766 311.652C897.211 312.488 896.934 313.715 896.934 315.332C896.934 316.949 897.211 318.184 897.766 319.035C898.328 319.879 899.141 320.301 900.203 320.301C901.195 320.301 901.953 319.875 902.477 319.023C903.008 318.172 903.273 316.941 903.273 315.332ZM905.43 321.156C905.43 323.125 904.965 324.617 904.035 325.633C903.105 326.648 901.738 327.156 899.934 327.156C899.34 327.156 898.719 327.102 898.07 326.992C897.422 326.883 896.773 326.723 896.125 326.512V324.379C896.891 324.738 897.586 325.004 898.211 325.176C898.836 325.348 899.41 325.434 899.934 325.434C901.098 325.434 901.945 325.117 902.477 324.484C903.008 323.852 903.273 322.848 903.273 321.473V321.379V319.914C902.93 320.648 902.461 321.195 901.867 321.555C901.273 321.914 900.551 322.094 899.699 322.094C898.168 322.094 896.945 321.48 896.031 320.254C895.117 319.027 894.66 317.387 894.66 315.332C894.66 313.27 895.117 311.625 896.031 310.398C896.945 309.172 898.168 308.559 899.699 308.559C900.543 308.559 901.258 308.727 901.844 309.062C902.43 309.398 902.906 309.918 903.273 310.621V308.922H905.43V321.156ZM911.383 308.922H916.902V320.324H921.18V322H910.469V320.324H914.746V310.598H911.383V308.922ZM914.746 303.824H916.902V306.543H914.746V303.824ZM934.457 313.867V322H932.289V313.867C932.289 312.688 932.082 311.82 931.668 311.266C931.254 310.711 930.605 310.434 929.723 310.434C928.715 310.434 927.938 310.793 927.391 311.512C926.852 312.223 926.582 313.246 926.582 314.582V322H924.426V308.875H926.582V310.844C926.965 310.094 927.484 309.527 928.141 309.145C928.797 308.754 929.574 308.559 930.473 308.559C931.809 308.559 932.805 309 933.461 309.883C934.125 310.758 934.457 312.086 934.457 313.867ZM949.727 314.359V315.414H940.387V315.484C940.324 317.273 940.664 318.559 941.406 319.34C942.156 320.121 943.211 320.512 944.57 320.512C945.258 320.512 945.977 320.402 946.727 320.184C947.477 319.965 948.277 319.633 949.129 319.188V321.332C948.309 321.668 947.516 321.918 946.75 322.082C945.992 322.254 945.258 322.34 944.547 322.34C942.508 322.34 940.914 321.73 939.766 320.512C938.617 319.285 938.043 317.598 938.043 315.449C938.043 313.355 938.605 311.684 939.73 310.434C940.855 309.184 942.355 308.559 944.23 308.559C945.902 308.559 947.219 309.125 948.18 310.258C949.148 311.391 949.664 312.758 949.727 314.359ZM947.57 313.727C947.477 312.82 947.145 312.039 946.574 311.383C946.012 310.719 945.199 310.387 944.137 310.387C943.098 310.387 942.242 310.73 941.57 311.418C940.898 312.105 940.531 312.879 940.469 313.738L947.57 313.727ZM964.188 314.359V315.414H954.848V315.484C954.785 317.273 955.125 318.559 955.867 319.34C956.617 320.121 957.672 320.512 959.031 320.512C959.719 320.512 960.438 320.402 961.188 320.184C961.938 319.965 962.738 319.633 963.59 319.188V321.332C962.77 321.668 961.977 321.918 961.211 322.082C960.453 322.254 959.719 322.34 959.008 322.34C956.969 322.34 955.375 321.73 954.227 320.512C953.078 319.285 952.504 317.598 952.504 315.449C952.504 313.355 953.066 311.684 954.191 310.434C955.316 309.184 956.816 308.559 958.691 308.559C960.363 308.559 961.68 309.125 962.641 310.258C963.609 311.391 964.125 312.758 964.188 314.359ZM962.031 313.727C961.938 312.82 961.605 312.039 961.035 311.383C960.473 310.719 959.66 310.387 958.598 310.387C957.559 310.387 956.703 310.73 956.031 311.418C955.359 312.105 954.992 312.879 954.93 313.738L962.031 313.727ZM979.059 311.582C978.598 311.223 978.129 310.961 977.652 310.797C977.176 310.633 976.652 310.551 976.082 310.551C974.738 310.551 973.711 310.973 973 311.816C972.289 312.66 971.934 313.879 971.934 315.473V322H969.766V308.875H971.934V311.441C972.293 310.512 972.844 309.801 973.586 309.309C974.336 308.809 975.223 308.559 976.246 308.559C976.777 308.559 977.273 308.625 977.734 308.758C978.195 308.891 978.637 309.098 979.059 309.379V311.582Z" fill="white"/>
<path d="M893.95 455.686C893.774 455.686 893.61 455.723 893.458 455.774C893.78 455.988 893.957 456.273 894.045 456.595C894.052 456.639 894.064 456.67 894.07 456.714C894.078 456.752 894.082 456.79 894.083 456.828C894.108 457.383 893.938 457.453 893.819 457.781C893.635 458.204 893.686 458.658 893.906 459.024C893.926 459.073 893.952 459.12 893.982 459.163C893.742 457.566 895.074 457.327 895.32 456.828C895.339 456.392 894.98 456.102 894.695 455.9C894.472 455.76 894.214 455.686 893.95 455.687V455.686ZM895.957 456.045C895.933 456.191 895.951 456.153 895.945 456.228C895.939 456.279 895.939 456.342 895.933 456.392C895.92 456.443 895.907 456.494 895.888 456.544C895.876 456.595 895.857 456.646 895.837 456.696L895.769 456.84C895.748 456.866 895.737 456.891 895.718 456.917L895.68 456.973C895.65 457.016 895.619 457.058 895.586 457.099C895.548 457.138 895.516 457.182 895.471 457.213V457.219C895.434 457.251 895.396 457.288 895.351 457.321C895.219 457.422 895.068 457.497 894.929 457.592C894.885 457.622 894.84 457.649 894.802 457.687C894.76 457.717 894.719 457.75 894.682 457.787C894.638 457.825 894.607 457.863 894.569 457.908C894.538 457.945 894.5 457.989 894.474 458.034C894.443 458.077 894.413 458.121 894.386 458.166C894.36 458.217 894.342 458.261 894.317 458.311C894.297 458.362 894.279 458.406 894.266 458.456C894.249 458.509 894.234 458.561 894.222 458.614C894.216 458.64 894.216 458.671 894.21 458.696C894.203 458.721 894.203 458.747 894.196 458.772C894.196 458.823 894.19 458.879 894.19 458.93C894.19 458.968 894.19 459.005 894.196 459.043C894.196 459.094 894.203 459.145 894.216 459.201C894.222 459.252 894.234 459.303 894.246 459.354C894.267 459.404 894.279 459.453 894.297 459.504C894.311 459.535 894.329 459.568 894.342 459.593L892.89 459.031C892.644 458.962 892.404 458.898 892.158 458.841L891.761 458.747C891.382 458.671 890.997 458.614 890.612 458.577C890.599 458.577 890.593 458.571 890.58 458.571C889.93 458.505 889.275 458.497 888.623 458.545C888.238 458.571 887.853 458.62 887.468 458.684C887.182 458.733 886.898 458.792 886.616 458.861L886.332 458.936C886.238 458.974 886.148 459.018 886.061 459.056L885.852 459.151C885.84 459.157 885.828 459.157 885.821 459.163C885.757 459.195 885.701 459.22 885.644 459.252C885.562 459.288 885.482 459.328 885.404 459.372C885.36 459.39 885.316 459.416 885.278 459.435C885.26 459.446 885.241 459.457 885.222 459.466C885.165 459.498 885.108 459.53 885.057 459.561C885.005 459.59 884.954 459.622 884.906 459.656C884.861 459.687 884.817 459.712 884.78 459.744C884.774 459.751 884.766 459.751 884.76 459.757C884.723 459.782 884.679 459.814 884.64 459.846L884.628 459.858L884.533 459.933C884.521 459.94 884.508 459.952 884.496 459.959C884.464 459.984 884.432 460.016 884.401 460.04C884.395 460.053 884.382 460.06 884.375 460.066C884.338 460.104 884.3 460.136 884.262 460.173C884.255 460.173 884.255 460.18 884.249 460.186C884.21 460.22 884.172 460.256 884.136 460.294C884.129 460.3 884.129 460.306 884.123 460.306C884.09 460.338 884.058 460.372 884.028 460.408C884.016 460.42 883.998 460.432 883.984 460.444C883.951 460.484 883.915 460.522 883.876 460.558C883.87 460.571 883.858 460.578 883.852 460.589C883.801 460.64 883.757 460.691 883.706 460.742L883.688 460.76C883.586 460.868 883.479 460.975 883.365 461.07C883.252 461.171 883.132 461.265 883.012 461.348C882.771 461.52 882.51 461.664 882.236 461.776C882.103 461.833 881.964 461.884 881.825 461.928C881.561 461.985 881.289 462.092 881.056 462.111C881.005 462.111 880.949 462.124 880.898 462.13L880.74 462.167L880.588 462.224C880.537 462.244 880.487 462.269 880.437 462.294C880.393 462.325 880.343 462.351 880.298 462.382C880.253 462.415 880.211 462.451 880.172 462.49C880.128 462.521 880.083 462.566 880.045 462.603C880.008 462.647 879.97 462.685 879.938 462.73C879.907 462.78 879.869 462.824 879.844 462.875C879.811 462.921 879.781 462.969 879.755 463.02C879.73 463.077 879.704 463.128 879.686 463.184C879.667 463.235 879.648 463.292 879.629 463.348C879.617 463.399 879.603 463.45 879.598 463.5C879.598 463.506 879.591 463.513 879.591 463.519C879.579 463.576 879.579 463.651 879.572 463.689C879.566 463.734 879.56 463.77 879.56 463.815C879.558 463.925 879.584 464.033 879.635 464.131V464.137C879.654 464.175 879.68 464.213 879.705 464.251C879.73 464.289 879.756 464.326 879.787 464.364C879.818 464.396 879.856 464.434 879.895 464.466C879.931 464.503 879.971 464.536 880.014 464.567C880.166 464.699 880.203 464.743 880.399 464.844C880.43 464.863 880.462 464.875 880.501 464.895C880.507 464.895 880.513 464.901 880.519 464.901C880.519 464.914 880.519 464.92 880.525 464.932C880.54 465.036 880.567 465.138 880.606 465.236C880.627 465.273 880.639 465.311 880.657 465.349C880.665 465.362 880.671 465.374 880.678 465.38C880.702 465.431 880.728 465.475 880.752 465.52L880.847 465.652C880.878 465.69 880.917 465.734 880.955 465.772C880.992 465.81 881.03 465.842 881.075 465.879C881.075 465.879 881.081 465.885 881.087 465.885C881.125 465.917 881.163 465.949 881.201 465.974C881.245 466.005 881.291 466.032 881.34 466.055C881.383 466.081 881.434 466.106 881.484 466.126C881.525 466.144 881.567 466.159 881.611 466.17C881.618 466.176 881.624 466.176 881.636 466.182C881.661 466.189 881.693 466.195 881.718 466.201C881.699 466.542 881.693 466.863 881.744 466.977C881.8 467.103 882.078 466.718 882.355 466.276C882.318 466.712 882.293 467.224 882.355 467.375C882.425 467.533 882.803 467.04 883.132 466.497C887.608 465.463 891.691 468.555 892.12 472.923C892.039 472.241 891.198 471.863 890.813 471.958C890.624 472.424 890.302 473.024 889.785 473.397C889.829 472.979 889.81 472.552 889.722 472.134C889.58 472.715 889.313 473.258 888.939 473.725C888.34 473.769 887.74 473.478 887.424 473.042C887.399 473.024 887.393 472.986 887.373 472.961C887.355 472.917 887.336 472.872 887.323 472.829C887.304 472.786 887.292 472.742 887.285 472.696C887.279 472.651 887.279 472.608 887.279 472.557V472.462C887.286 472.417 887.297 472.373 887.31 472.33C887.324 472.286 887.336 472.242 887.355 472.197C887.38 472.153 887.399 472.109 887.43 472.065C887.537 471.761 887.537 471.515 887.342 471.37C887.304 471.346 887.264 471.324 887.222 471.307C887.197 471.301 887.166 471.289 887.14 471.282L887.089 471.263C887.046 471.249 887.002 471.239 886.957 471.232C886.914 471.219 886.869 471.213 886.825 471.212C886.779 471.205 886.732 471.201 886.686 471.2C886.655 471.2 886.623 471.206 886.591 471.206C886.544 471.206 886.497 471.213 886.452 471.226C886.408 471.232 886.364 471.238 886.319 471.25C886.274 471.262 886.23 471.277 886.187 471.295C886.143 471.313 886.106 471.333 886.061 471.352C886.023 471.37 885.985 471.396 885.941 471.415C884.47 472.374 885.348 474.621 886.351 475.272C885.972 475.341 885.587 475.422 885.48 475.505L885.467 475.517C885.739 475.681 886.023 475.821 886.319 475.941C886.724 476.073 887.152 476.192 887.342 476.243V476.249C887.865 476.357 888.4 476.395 888.933 476.363C891.729 476.168 894.02 474.04 894.437 471.238L894.474 471.402C894.494 471.516 894.518 471.636 894.532 471.755V471.761C894.544 471.818 894.55 471.875 894.557 471.926V471.951C894.563 472.008 894.569 472.065 894.569 472.116C894.575 472.185 894.581 472.254 894.581 472.323V472.425C894.581 472.456 894.589 472.494 894.589 472.525C894.589 472.564 894.581 472.601 894.581 472.639V472.728C894.581 472.772 894.575 472.809 894.575 472.854C894.575 472.879 894.575 472.905 894.569 472.936C894.569 472.98 894.563 473.024 894.563 473.075C894.557 473.093 894.557 473.113 894.557 473.131L894.537 473.277C894.537 473.296 894.537 473.314 894.532 473.334C894.524 473.397 894.512 473.454 894.506 473.517V473.529L894.468 473.706V473.725L894.431 473.895C894.431 473.902 894.424 473.915 894.424 473.92C894.412 473.978 894.397 474.035 894.38 474.091V474.11C894.36 474.173 894.342 474.23 894.329 474.287C894.323 474.293 894.323 474.299 894.323 474.299L894.266 474.488C894.241 474.552 894.222 474.609 894.196 474.672C894.171 474.735 894.153 474.798 894.127 474.855C894.102 474.918 894.076 474.974 894.052 475.038H894.045C894.02 475.094 893.994 475.158 893.963 475.215C893.958 475.23 893.951 475.244 893.944 475.258C893.938 475.264 893.938 475.272 893.932 475.278C893.514 476.113 892.907 476.84 892.158 477.398C892.107 477.43 892.057 477.468 892.006 477.506C891.994 477.518 891.975 477.524 891.962 477.536C891.917 477.57 891.871 477.602 891.824 477.632L891.842 477.67H891.849L892.114 477.632H892.12C892.284 477.607 892.448 477.575 892.612 477.544C892.657 477.537 892.707 477.524 892.751 477.512L892.84 477.493C892.884 477.487 892.928 477.474 892.972 477.468C893.01 477.455 893.048 477.448 893.085 477.437C893.717 477.284 894.329 477.076 894.916 476.831C893.902 478.212 892.553 479.314 890.996 480.03C891.723 479.979 892.448 479.86 893.149 479.658C895.685 478.912 897.826 477.201 899.113 474.892C898.853 476.353 898.274 477.739 897.416 478.951C898.027 478.547 898.592 478.077 899.101 477.55C900.514 476.075 901.441 474.203 901.759 472.185C901.973 473.183 902.036 474.212 901.942 475.227C906.498 468.871 902.32 462.281 900.571 460.546C900.565 460.533 900.559 460.527 900.559 460.515C900.553 460.521 900.553 460.521 900.553 460.527C900.553 460.521 900.553 460.521 900.546 460.515C900.546 460.59 900.54 460.665 900.534 460.742C900.516 460.883 900.495 461.024 900.471 461.164C900.44 461.303 900.401 461.442 900.364 461.582C900.319 461.714 900.269 461.853 900.211 461.985C900.153 462.116 900.09 462.244 900.022 462.37C899.882 462.617 899.719 462.852 899.537 463.071C899.442 463.184 899.341 463.285 899.239 463.386C899.18 463.441 899.119 463.493 899.056 463.544L898.911 463.67C898.799 463.759 898.681 463.841 898.558 463.916C898.437 463.994 898.313 464.065 898.185 464.131C898.053 464.194 897.921 464.251 897.788 464.308C897.519 464.411 897.24 464.487 896.955 464.535C896.81 464.561 896.665 464.573 896.525 464.586C896.425 464.593 896.324 464.597 896.223 464.598C896.079 464.596 895.936 464.588 895.793 464.573C895.649 464.561 895.506 464.54 895.365 464.51C895.221 464.484 895.08 464.448 894.942 464.403H894.935C895.074 464.389 895.213 464.377 895.352 464.352C895.637 464.302 895.915 464.226 896.185 464.125C896.324 464.074 896.456 464.011 896.582 463.947C896.715 463.884 896.835 463.815 896.961 463.74C897.081 463.658 897.201 463.576 897.315 463.487C897.429 463.399 897.536 463.304 897.636 463.203C897.743 463.108 897.838 463.001 897.933 462.893C898.028 462.78 898.116 462.666 898.198 462.553C898.211 462.534 898.224 462.509 898.236 462.49C898.299 462.388 898.363 462.288 898.42 462.187C898.559 461.936 898.673 461.671 898.76 461.398C898.805 461.265 898.836 461.127 898.868 460.987C898.893 460.843 898.919 460.704 898.931 460.564C898.943 460.42 898.956 460.274 898.956 460.136C898.956 460.034 898.949 459.933 898.943 459.832C898.93 459.691 898.913 459.55 898.892 459.41C898.868 459.267 898.836 459.126 898.798 458.987C898.754 458.855 898.71 458.715 898.659 458.583C898.608 458.45 898.546 458.318 898.483 458.192C898.412 458.065 898.343 457.939 898.268 457.819C898.187 457.701 898.103 457.586 898.015 457.473C897.921 457.365 897.826 457.257 897.725 457.15C897.672 457.096 897.617 457.043 897.561 456.992C897.276 456.771 896.981 456.563 896.683 456.374C896.643 456.35 896.6 456.329 896.557 456.311C896.37 456.196 896.168 456.107 895.957 456.046V456.045Z" fill="#6A6A6A"/>
<path d="M844.375 455.697C843.562 455.642 842.762 455.788 842.062 456.193C841.128 456.731 840.505 457.652 840.171 458.713C839.837 459.771 839.76 460.993 839.883 462.328C839.894 462.462 839.918 462.604 839.935 462.741C839.808 462.795 839.673 462.845 839.55 462.903C838.334 463.464 837.315 464.141 836.563 464.96C835.813 465.78 835.327 466.778 835.327 467.858C835.327 468.936 835.813 469.936 836.563 470.756C837.314 471.574 838.334 472.252 839.55 472.813C839.673 472.87 839.808 472.92 839.935 472.974C839.918 473.112 839.894 473.253 839.882 473.388C839.76 474.722 839.837 475.943 840.171 477.003C840.505 478.064 841.128 478.983 842.062 479.523C842.996 480.062 844.103 480.142 845.189 479.901C846.274 479.661 847.37 479.115 848.464 478.343C848.574 478.266 848.685 478.174 848.796 478.092C848.907 478.174 849.018 478.265 849.129 478.343C850.223 479.115 851.319 479.661 852.404 479.901C853.489 480.142 854.597 480.063 855.531 479.523C856.465 478.984 857.088 478.064 857.422 477.003C857.755 475.944 857.832 474.722 857.71 473.388C857.699 473.253 857.675 473.112 857.658 472.974C857.785 472.92 857.92 472.87 858.043 472.813C859.259 472.252 860.278 471.574 861.029 470.756C861.78 469.936 862.266 468.937 862.266 467.858C862.266 466.779 861.78 465.78 861.029 464.96C860.279 464.141 859.259 463.464 858.043 462.903C857.92 462.845 857.785 462.795 857.658 462.741C857.675 462.604 857.699 462.462 857.711 462.328C857.832 460.993 857.755 459.772 857.422 458.712C857.088 457.652 856.465 456.732 855.531 456.193C854.597 455.654 853.489 455.574 852.404 455.814C851.319 456.055 850.223 456.6 849.129 457.373C849.019 457.45 848.908 457.541 848.796 457.624C848.686 457.541 848.575 457.451 848.464 457.373C847.37 456.6 846.274 456.055 845.189 455.814C844.921 455.754 844.649 455.715 844.375 455.696V455.697ZM844.25 457.614C844.413 457.625 844.587 457.652 844.773 457.694C845.5 457.855 846.371 458.263 847.29 458.902C846.483 459.67 845.735 460.497 845.053 461.377C843.951 461.527 842.862 461.76 841.795 462.074C841.701 460.96 841.782 460.001 842.005 459.291C842.235 458.564 842.577 458.118 843.024 457.859C843.359 457.666 843.757 457.576 844.249 457.614H844.25ZM853.344 457.614C853.835 457.576 854.234 457.666 854.569 457.859C855.015 458.117 855.358 458.564 855.588 459.291C855.811 460.001 855.892 460.96 855.798 462.074C854.731 461.76 853.642 461.527 852.54 461.377C851.857 460.497 851.11 459.67 850.303 458.902C851.222 458.263 852.093 457.855 852.82 457.694C853.006 457.653 853.18 457.625 853.344 457.614ZM848.796 460.122C849.134 460.434 849.472 460.782 849.809 461.145C849.472 461.132 849.134 461.125 848.796 461.123C848.455 461.123 848.119 461.134 847.783 461.145C848.12 460.782 848.459 460.434 848.796 460.122ZM848.796 463.047C849.725 463.047 850.624 463.102 851.489 463.194C852.02 463.92 852.512 464.674 852.962 465.453C853.426 466.256 853.828 467.062 854.182 467.858C853.818 468.681 853.411 469.483 852.962 470.263C852.512 471.042 852.02 471.796 851.489 472.522C850.623 472.613 849.725 472.668 848.796 472.668C847.868 472.668 846.968 472.613 846.104 472.522C845.573 471.796 845.081 471.042 844.631 470.263C844.167 469.46 843.765 468.654 843.411 467.858C843.764 467.062 844.167 466.256 844.631 465.453C845.094 464.649 845.592 463.897 846.104 463.194C846.998 463.097 847.897 463.049 848.796 463.047ZM843.49 463.625C843.312 463.908 843.135 464.194 842.964 464.491C842.797 464.784 842.634 465.08 842.477 465.38C842.333 464.921 842.206 464.458 842.097 463.99C842.537 463.855 843.007 463.734 843.49 463.625ZM854.103 463.625C854.586 463.734 855.056 463.855 855.495 463.99C855.393 464.44 855.262 464.906 855.115 465.38C854.958 465.08 854.796 464.784 854.629 464.491C854.459 464.199 854.284 463.91 854.103 463.625ZM840.286 464.686C840.532 465.71 840.872 466.774 841.312 467.858C840.891 468.888 840.548 469.948 840.286 471.03C839.275 470.554 838.485 470.003 837.983 469.455C837.468 468.893 837.251 468.374 837.251 467.858C837.251 467.342 837.468 466.823 837.983 466.261C838.485 465.712 839.275 465.162 840.286 464.686ZM857.307 464.686C858.318 465.162 859.108 465.712 859.61 466.261C860.125 466.823 860.341 467.342 860.341 467.858C860.341 468.374 860.125 468.893 859.61 469.455C859.108 470.003 858.318 470.554 857.307 471.03C857.045 469.948 856.702 468.888 856.281 467.858C856.721 466.774 857.061 465.71 857.307 464.686ZM848.796 464.972C847.214 464.972 845.91 466.275 845.91 467.858C845.91 469.44 847.214 470.744 848.796 470.744C850.379 470.744 851.683 469.44 851.683 467.858C851.683 466.275 850.379 464.972 848.796 464.972ZM848.796 466.896C849.339 466.896 849.759 467.315 849.759 467.858C849.759 468.4 849.339 468.82 848.796 468.82C848.254 468.82 847.834 468.4 847.834 467.858C847.834 467.315 848.254 466.896 848.796 466.896ZM842.477 470.336C842.634 470.633 842.793 470.929 842.963 471.225C843.135 471.521 843.312 471.807 843.49 472.091C843.007 471.981 842.537 471.861 842.097 471.725C842.199 471.276 842.331 470.81 842.477 470.336ZM855.115 470.336C855.262 470.81 855.394 471.276 855.495 471.725C855.056 471.861 854.586 471.981 854.103 472.091C854.281 471.807 854.458 471.521 854.63 471.225C854.8 470.929 854.959 470.633 855.115 470.336ZM841.795 473.642C842.805 473.94 843.896 474.179 845.053 474.338C845.772 475.262 846.525 476.088 847.29 476.814C846.371 477.453 845.5 477.861 844.773 478.021C844.029 478.187 843.47 478.114 843.024 477.857C842.577 477.599 842.235 477.152 842.005 476.424C841.782 475.714 841.701 474.756 841.795 473.642ZM855.798 473.642C855.892 474.756 855.811 475.714 855.588 476.424C855.358 477.152 855.015 477.598 854.569 477.857C854.123 478.114 853.564 478.187 852.82 478.021C852.093 477.861 851.222 477.453 850.303 476.814C851.11 476.046 851.857 475.219 852.54 474.338C853.642 474.188 854.731 473.955 855.798 473.642ZM847.783 474.57C848.119 474.582 848.455 474.592 848.796 474.592C849.138 474.592 849.474 474.582 849.809 474.57C849.473 474.934 849.134 475.281 848.796 475.594C848.446 475.266 848.108 474.924 847.783 474.57Z" fill="#6A6A6A"/>
<path d="M807.074 480.03C806.726 480.03 806.403 479.94 806.101 479.783L803.023 478.017C802.561 477.771 802.792 477.682 802.932 477.637C803.556 477.436 803.671 477.391 804.32 477.033C804.389 476.988 804.482 477.01 804.551 477.055L806.912 478.42C807.004 478.464 807.12 478.464 807.19 478.42L816.424 473.253C816.515 473.209 816.562 473.119 816.562 473.007V462.697C816.562 462.585 816.516 462.496 816.424 462.451L807.19 457.308C807.097 457.264 806.981 457.264 806.912 457.308L797.678 462.451C797.585 462.496 797.539 462.608 797.539 462.697V473.007C797.539 473.097 797.585 473.209 797.678 473.253L800.2 474.663C801.566 475.334 802.422 474.551 802.422 473.769V463.592C802.422 463.458 802.537 463.324 802.7 463.324H803.88C804.019 463.324 804.157 463.436 804.157 463.592V473.768C804.157 475.535 803.162 476.563 801.427 476.563C800.894 476.563 800.478 476.563 799.298 476.004L796.868 474.663C796.575 474.502 796.331 474.266 796.16 473.979C795.989 473.691 795.898 473.364 795.896 473.03V462.719C795.896 462.049 796.265 461.423 796.868 461.087L806.102 455.92C806.403 455.766 806.736 455.686 807.074 455.686C807.412 455.686 807.745 455.766 808.045 455.92L817.28 461.086C817.882 461.422 818.252 462.048 818.252 462.718V473.029C818.252 473.699 817.882 474.325 817.28 474.662L808.045 479.827C807.739 479.96 807.408 480.029 807.074 480.028V480.03ZM809.92 472.94C805.87 472.94 805.037 471.152 805.037 469.631C805.037 469.497 805.153 469.362 805.315 469.362H806.518C806.657 469.362 806.772 469.452 806.772 469.586C806.958 470.771 807.49 471.352 809.943 471.352C811.887 471.352 812.721 470.927 812.721 469.921C812.721 469.34 812.489 468.915 809.458 468.625C806.934 468.378 805.361 467.842 805.361 465.896C805.361 464.084 806.934 463.01 809.574 463.01C812.536 463.01 813.994 463.995 814.179 466.142C814.177 466.215 814.152 466.285 814.109 466.343C814.063 466.388 813.994 466.433 813.924 466.433H812.721C812.662 466.431 812.606 466.411 812.56 466.375C812.514 466.338 812.481 466.288 812.467 466.231C812.188 465.002 811.471 464.598 809.574 464.598C807.444 464.598 807.19 465.314 807.19 465.85C807.19 466.5 807.49 466.701 810.36 467.059C813.206 467.416 814.549 467.931 814.549 469.853C814.525 471.823 812.86 472.94 809.92 472.94Z" fill="#6A6A6A"/>
<path d="M740.299 468.209C740.299 467.055 739.363 466.119 738.21 466.119H736.38C735.757 466.119 735.159 466.367 734.718 466.808C734.277 467.249 734.029 467.847 734.029 468.47C734.029 469.094 734.277 469.692 734.718 470.133C735.159 470.574 735.757 470.822 736.38 470.822H737.948C738.571 470.822 739.169 471.069 739.61 471.51C740.051 471.951 740.299 472.549 740.299 473.173C740.299 473.796 740.051 474.394 739.61 474.835C739.169 475.276 738.833 475.524 738.21 475.524H736.38C734.718 475.524 734.029 474.321 734.029 473.687M733.245 466.119H725.408M729.327 466.119V476.308M723.547 478.659H741.377C742.513 478.659 743.434 477.738 743.434 476.602V458.772C743.434 457.635 742.513 456.714 741.377 456.714H723.547C722.41 456.714 721.489 457.635 721.489 458.772V476.602C721.489 477.738 722.41 478.659 723.547 478.659Z" stroke="#6A6A6A" stroke-width="1.71443"/>
<path d="M693.188 466.844C693.188 466.037 693.509 465.263 694.08 464.692C694.65 464.121 695.425 463.801 696.232 463.801H699.275C699.544 463.801 699.802 463.908 699.992 464.098C700.182 464.288 700.289 464.546 700.289 464.815C700.289 465.084 700.182 465.342 699.992 465.532C699.802 465.723 699.544 465.83 699.275 465.83H696.232C695.963 465.83 695.705 465.936 695.514 466.127C695.324 466.317 695.217 466.575 695.217 466.844V467.858C695.217 468.127 695.324 468.385 695.514 468.576C695.705 468.766 695.963 468.873 696.232 468.873H697.246C698.053 468.873 698.827 469.193 699.398 469.764C699.968 470.335 700.289 471.109 700.289 471.916V472.93C700.289 473.737 699.968 474.511 699.398 475.082C698.827 475.653 698.053 475.973 697.246 475.973H694.203C693.934 475.973 693.676 475.866 693.486 475.676C693.295 475.486 693.188 475.228 693.188 474.959C693.188 474.69 693.295 474.432 693.486 474.242C693.676 474.051 693.934 473.944 694.203 473.944H697.246C697.515 473.944 697.773 473.838 697.963 473.647C698.153 473.457 698.26 473.199 698.26 472.93V471.916C698.26 471.647 698.153 471.389 697.963 471.198C697.773 471.008 697.515 470.901 697.246 470.901H696.232C695.425 470.901 694.65 470.581 694.08 470.01C693.509 469.439 693.188 468.665 693.188 467.858V466.844Z" fill="#6A6A6A"/>
<path d="M692.172 464.815C692.172 464.546 692.065 464.288 691.875 464.098C691.685 463.908 691.427 463.801 691.158 463.801C690.889 463.801 690.631 463.908 690.441 464.098C690.25 464.288 690.143 464.546 690.143 464.815V472.93C690.143 473.199 690.037 473.457 689.846 473.647C689.656 473.838 689.398 473.944 689.129 473.944H687.1C686.831 473.944 686.573 474.051 686.383 474.242C686.193 474.432 686.086 474.69 686.086 474.959C686.086 475.228 686.193 475.486 686.383 475.676C686.573 475.866 686.831 475.973 687.1 475.973H689.129C689.936 475.973 690.71 475.653 691.281 475.082C691.852 474.511 692.172 473.737 692.172 472.93V464.815Z" fill="#6A6A6A"/>
<path d="M680 460.757C680 459.412 680.534 458.122 681.486 457.171C682.437 456.22 683.727 455.686 685.072 455.686H699.273C700.618 455.686 701.908 456.22 702.859 457.171C703.81 458.122 704.345 459.412 704.345 460.757V474.959C704.345 476.304 703.81 477.594 702.859 478.545C701.908 479.496 700.618 480.03 699.273 480.03H685.072C683.727 480.03 682.437 479.496 681.486 478.545C680.534 477.594 680 476.304 680 474.959V460.757ZM685.072 457.714C684.265 457.714 683.491 458.035 682.92 458.606C682.349 459.176 682.029 459.95 682.029 460.757V474.959C682.029 475.766 682.349 476.54 682.92 477.11C683.491 477.681 684.265 478.002 685.072 478.002H699.273C700.08 478.002 700.854 477.681 701.425 477.11C701.996 476.54 702.316 475.766 702.316 474.959V460.757C702.316 459.95 701.996 459.176 701.425 458.606C700.854 458.035 700.08 457.714 699.273 457.714H685.072Z" fill="#6A6A6A"/>
<g clip-path="url(#clip2_1464_62)">
<path d="M766.687 474.888C766.687 474.888 765.703 475.461 767.387 475.653C768.003 475.745 768.714 475.797 769.436 475.797C770.598 475.797 771.727 475.663 772.811 475.408L772.711 475.427C773.112 475.672 773.578 475.904 774.063 476.096L774.126 476.117C769.092 478.275 762.733 475.992 766.688 474.887L766.687 474.888ZM766.072 472.072C766.072 472.072 764.969 472.889 766.653 473.063C768.992 473.341 771.362 473.22 773.661 472.707L773.523 472.732C773.818 473.009 774.17 473.229 774.56 473.371L774.582 473.378C768.496 475.157 761.715 473.518 766.072 472.072ZM771.257 467.296C772.498 468.724 770.931 470.009 770.931 470.009C770.931 470.009 774.08 468.38 772.635 466.346C771.284 464.448 770.248 463.504 775.856 460.251C775.856 460.251 767.052 462.45 771.257 467.296Z" fill="#999999"/>
<path d="M777.916 476.972C777.916 476.972 778.642 477.572 777.115 478.034C774.209 478.915 765.021 479.181 762.468 478.07C761.55 477.67 763.271 477.116 763.811 477C764.06 476.937 764.346 476.901 764.641 476.901H764.702H764.698C763.678 476.182 758.103 478.313 761.87 478.922C772.134 480.587 780.58 478.172 777.919 476.972H777.916ZM767.16 469.155C767.16 469.155 762.486 470.265 765.504 470.668C767.613 470.83 769.731 470.804 771.835 470.59L771.686 470.602C773.62 470.44 775.563 470.088 775.563 470.088C775.143 470.27 774.739 470.487 774.356 470.736L774.387 470.717C769.64 471.965 760.472 471.385 763.112 470.107C764.35 469.474 765.722 469.146 767.113 469.151H767.162H767.16V469.155ZM775.543 473.843C780.367 471.335 778.137 468.927 776.579 469.25C776.383 469.286 776.19 469.338 776.002 469.407L776.027 469.399C776.127 469.256 776.269 469.146 776.433 469.083L776.439 469.081C779.519 467.999 781.889 472.275 775.445 473.967C775.484 473.932 775.516 473.89 775.54 473.844L775.541 473.842L775.543 473.843ZM772.635 455C772.635 455 775.308 457.672 770.1 461.783C765.925 465.08 769.147 466.959 770.1 469.108C767.663 466.909 765.875 464.974 767.074 463.171C768.836 460.527 773.714 459.245 772.635 454.999V455Z" fill="#999999"/>
<path d="M767.634 480.636C772.263 480.933 779.378 480.471 779.549 478.281C779.549 478.281 779.226 479.111 775.722 479.771C773.787 480.121 771.559 480.32 769.284 480.32C767.421 480.32 765.59 480.186 763.797 479.928L764.002 479.952C764.002 479.952 764.594 480.443 767.637 480.638L767.634 480.636Z" fill="#999999"/>
</g>
</g>
<defs>
<filter id="filter0_f_1464_62" x="785.524" y="-177.464" width="794.188" height="822.067" filterUnits="userSpaceOnUse" color-interpolation-filters="sRGB">
<feFlood flood-opacity="0" result="BackgroundImageFix"/>
<feBlend mode="normal" in="SourceGraphic" in2="BackgroundImageFix" result="shape"/>
<feGaussianBlur stdDeviation="86" result="effect1_foregroundBlur_1464_62"/>
</filter>
<clipPath id="clip0_1464_62">
<rect width="1584" height="504" rx="24" fill="white"/>
</clipPath>
<clipPath id="clip1_1464_62">
<rect width="800" height="800" fill="white" transform="translate(721 -265)"/>
</clipPath>
<clipPath id="clip2_1464_62">
<rect width="19.2873" height="25.7164" fill="white" transform="translate(760.578 455)"/>
</clipPath>
</defs>
</svg>
